<svg class="icon icon-github" xmlns="http://www.w3.org/2000/svg" width="23" height="24" viewBox="0 0 23 24" fill="none">
    <path d="M15.6123 22.4868V18.6168C15.6498 18.14 15.5854 17.6606 15.4233 17.2106C15.2612 16.7606 15.0052 16.3502 14.6723 16.0068C17.8123 15.6568 21.1123 14.4668 21.1123 9.0068C21.112 7.61063 20.575 6.268 19.6123 5.2568C20.0682 4.03531 20.0359 2.68515 19.5223 1.4868C19.5223 1.4868 18.3423 1.1368 15.6123 2.9668C13.3203 2.34562 10.9043 2.34562 8.6123 2.9668C5.8823 1.1368 4.7023 1.4868 4.7023 1.4868C4.18868 2.68515 4.15645 4.03531 4.6123 5.2568C3.64243 6.2755 3.10483 7.63026 3.1123 9.0368C3.1123 14.4568 6.4123 15.6468 9.5523 16.0368C9.2233 16.3768 8.96957 16.7822 8.80761 17.2267C8.64566 17.6712 8.57911 18.1449 8.6123 18.6168V22.4868M8.6123 19.4868C3.6123 20.9868 3.6123 16.9868 1.6123 16.4868L8.6123 19.4868Z" stroke="var(--color-white)" stroke-width="1" stroke-linecap="round" stroke-linejoin="round" />
</svg>