<svg class="icon icon-linkedin" xmlns="http://www.w3.org/2000/svg" width="25" height="25" viewBox="0 0 25 25" fill="none">
	<path d="M16.6123 8.4868C18.2036 8.4868 19.7297 9.11894 20.8549 10.2442C21.9802 11.3694 22.6123 12.8955 22.6123 14.4868V21.4868H18.6123V14.4868C18.6123 13.9564 18.4016 13.4477 18.0265 13.0726C17.6514 12.6975 17.1427 12.4868 16.6123 12.4868C16.0819 12.4868 15.5732 12.6975 15.1981 13.0726C14.823 13.4477 14.6123 13.9564 14.6123 14.4868V21.4868H10.6123V14.4868C10.6123 12.8955 11.2444 11.3694 12.3697 10.2442C13.4949 9.11894 15.021 8.4868 16.6123 8.4868V8.4868Z" stroke="var(--color-white)" stroke-width="1" stroke-linecap="round" stroke-linejoin="round" />
	<path d="M6.6123 9.4868H2.6123V21.4868H6.6123V9.4868Z" stroke="var(--color-white)" stroke-width="1" stroke-linecap="round" stroke-linejoin="round" />
	<path d="M4.6123 6.4868C5.71687 6.4868 6.6123 5.59137 6.6123 4.4868C6.6123 3.38223 5.71687 2.4868 4.6123 2.4868C3.50774 2.4868 2.6123 3.38223 2.6123 4.4868C2.6123 5.59137 3.50774 6.4868 4.6123 6.4868Z" stroke="var(--color-white)" stroke-width="1" stroke-linecap="round" stroke-linejoin="round" />
</svg>