<svg width="25" height="25" viewBox="0 0 25 25" fill="none" xmlns="http://www.w3.org/2000/svg">
<path d="M21.4758 16.3675V8.36747C21.4755 8.01674 21.3829 7.67228 21.2074 7.36863C21.0319 7.06498 20.7796 6.81283 20.4758 6.63747L13.4758 2.63747C13.1718 2.46193 12.8269 2.36952 12.4758 2.36952C12.1248 2.36952 11.7799 2.46193 11.4758 2.63747L4.47583 6.63747C4.17209 6.81283 3.91981 7.06498 3.74429 7.36863C3.56877 7.67228 3.47619 8.01674 3.47583 8.36747V16.3675C3.47619 16.7182 3.56877 17.0627 3.74429 17.3663C3.91981 17.67 4.17209 17.9221 4.47583 18.0975L11.4758 22.0975C11.7799 22.273 12.1248 22.3654 12.4758 22.3654C12.8269 22.3654 13.1718 22.273 13.4758 22.0975L20.4758 18.0975C20.7796 17.9221 21.0319 17.67 21.2074 17.3663C21.3829 17.0627 21.4755 16.7182 21.4758 16.3675Z" stroke="black" stroke-width="2" stroke-linecap="round" stroke-linejoin="round"/>
<path d="M3.74585 7.32747L12.4758 12.3775L21.2058 7.32747" stroke="black" stroke-width="2" stroke-linecap="round" stroke-linejoin="round"/>
<path d="M12.4758 22.4475V12.3675" stroke="black" stroke-width="2" stroke-linecap="round" stroke-linejoin="round"/>
</svg>
